<?xml version="1.0" standalone="no"?>
<svg xmlns="http://www.w3.org/2000/svg" width="600" height="779.5138931274414"><g transform="translate(60,20)"><g class="x axis" transform="translate(0,600)" fill="none" font-size="10" font-family="sans-serif" text-anchor="middle"><path class="domain" stroke="#000" d="M0.5,6V0.5H540.5V6"/><g class="tick" opacity="1" transform="translate(32.63736263736263,0)"><line stroke="#000" y2="6"/><text fill="#000" y="9" dy="-0.5em" dx="-.8em" style="text-anchor: end;" transform="rotate(-90)">S15-V5-R-B78-calc</text></g><g class="tick" opacity="1" transform="translate(91.97802197802197,0)"><line stroke="#000" y2="6"/><text fill="#000" y="9" dy="-0.5em" dx="-.8em" style="text-anchor: end;" transform="rotate(-90)">S8-V5-O-G12-calc</text></g><g class="tick" opacity="1" transform="translate(151.3186813186813,0)"><line stroke="#000" y2="6"/><text fill="#000" y="9" dy="-0.5em" dx="-.8em" style="text-anchor: end;" transform="rotate(-90)">S10-V5-Q-B61-calc</text></g><g class="tick" opacity="1" transform="translate(210.65934065934067,0)"><line stroke="#000" y2="6"/><text fill="#000" y="9" dy="-0.5em" dx="-.8em" style="text-anchor: end;" transform="rotate(-90)">S22S23-V5-N-B78-root</text></g><g class="tick" opacity="1" transform="translate(270,0)"><line stroke="#000" y2="6"/><text fill="#000" y="9" dy="-0.5em" dx="-.8em" style="text-anchor: end;" transform="rotate(-90)">S14-V5-P-B17-calc</text></g><g class="tick" opacity="1" transform="translate(329.34065934065933,0)"><line stroke="#000" y2="6"/><text fill="#000" y="9" dy="-0.5em" dx="-.8em" style="text-anchor: end;" transform="rotate(-90)">S18S19-V5-L-B17-root</text></g><g class="tick" opacity="1" transform="translate(388.6813186813187,0)"><line stroke="#000" y2="6"/><text fill="#000" y="9" dy="-0.5em" dx="-.8em" style="text-anchor: end;" transform="rotate(-90)">S20S21-V5-M-B61-root</text></g><g class="tick" opacity="1" transform="translate(448.02197802197804,0)"><line stroke="#000" y2="6"/><text fill="#000" y="9" dy="-0.5em" dx="-.8em" style="text-anchor: end;" transform="rotate(-90)">S16S17-V5-K2-G12-root</text></g><g class="tick" opacity="1" transform="translate(507.3626373626374,0)"><line stroke="#000" y2="6"/><text fill="#000" y="9" dy="-0.5em" dx="-.8em" style="text-anchor: end;" transform="rotate(-90)">S16S17-V5-K1-G12-root</text></g></g><g class="y axis" fill="none" font-size="10" font-family="sans-serif" text-anchor="end"><path class="domain" stroke="#000" d="M-6,600.5H0.5V0.5H-6"/><g class="tick" opacity="1" transform="translate(0,600.5)"><line stroke="#000" x2="-6"/><text fill="#000" x="-9" dy="0.32em">0%</text></g><g class="tick" opacity="1" transform="translate(0,540.5)"><line stroke="#000" x2="-6"/><text fill="#000" x="-9" dy="0.32em">10%</text></g><g class="tick" opacity="1" transform="translate(0,480.5)"><line stroke="#000" x2="-6"/><text fill="#000" x="-9" dy="0.32em">20%</text></g><g class="tick" opacity="1" transform="translate(0,420.5)"><line stroke="#000" x2="-6"/><text fill="#000" x="-9" dy="0.32em">30%</text></g><g class="tick" opacity="1" transform="translate(0,360.5)"><line stroke="#000" x2="-6"/><text fill="#000" x="-9" dy="0.32em">40%</text></g><g class="tick" opacity="1" transform="translate(0,300.5)"><line stroke="#000" x2="-6"/><text fill="#000" x="-9" dy="0.32em">50%</text></g><g class="tick" opacity="1" transform="translate(0,240.5)"><line stroke="#000" x2="-6"/><text fill="#000" x="-9" dy="0.32em">60%</text></g><g class="tick" opacity="1" transform="translate(0,180.5)"><line stroke="#000" x2="-6"/><text fill="#000" x="-9" dy="0.32em">70%</text></g><g class="tick" opacity="1" transform="translate(0,120.5)"><line stroke="#000" x2="-6"/><text fill="#000" x="-9" dy="0.32em">80%</text></g><g class="tick" opacity="1" transform="translate(0,60.5)"><line stroke="#000" x2="-6"/><text fill="#000" x="-9" dy="0.32em">90%</text></g><g class="tick" opacity="1" transform="translate(0,0.5)"><line stroke="#000" x2="-6"/><text fill="#000" x="-9" dy="0.32em">100%</text></g></g><text id="y-label" text-anchor="middle" style="font: 12px sans-serif;" transform="translate(-30,300)rotate(-90)">Relative Frequency</text><text id="x-label" text-anchor="middle" style="font: 12px sans-serif;" transform="translate(270,739.5138931274414)">Sample</text><g class="layer" style="fill: rgb(127, 201, 127);"><rect x="5.934065934065927" y="0" height="17.48913321401176" width="53.40659340659341"/><rect x="65.27472527472527" y="0" height="62.33307148468191" width="53.40659340659341"/><rect x="124.61538461538461" y="0" height="96.81597409606042" width="53.40659340659341"/><rect x="183.95604395604397" y="0" height="200.0938746773058" width="53.40659340659341"/><rect x="243.2967032967033" y="0" height="200.42674253200568" width="53.40659340659341"/><rect x="302.6373626373626" y="0" height="222.94871794871796" width="53.40659340659341"/><rect x="361.978021978022" y="0" height="291.43187958317253" width="53.40659340659341"/><rect x="421.31868131868134" y="1.1368683772161603e-13" height="357.877416700946" width="53.40659340659341"/><rect x="480.65934065934067" y="0" height="360.60436485730276" width="53.40659340659341"/></g><g class="layer" style="fill: rgb(190, 174, 212);"><rect x="5.934065934065927" y="17.48913321401176" height="344.25978010738936" width="53.40659340659341"/><rect x="65.27472527472527" y="62.33307148468191" height="398.5074626865671" width="53.40659340659341"/><rect x="124.61538461538461" y="96.81597409606042" height="324.77064220183485" width="53.40659340659341"/><rect x="183.95604395604397" y="200.0938746773058" height="166.4398028631777" width="53.40659340659341"/><rect x="243.2967032967033" y="200.42674253200568" height="246.37268847795167" width="53.40659340659341"/><rect x="302.6373626373626" y="222.94871794871796" height="78.33333333333331" width="53.40659340659341"/><rect x="361.978021978022" y="291.43187958317253" height="20.49401775376299" width="53.40659340659341"/><rect x="421.31868131868134" y="357.8774167009461" height="69.97120526532291" width="53.40659340659341"/><rect x="480.65934065934067" y="360.60436485730276" height="61.55567991046445" width="53.40659340659341"/></g><g class="layer" style="fill: rgb(253, 192, 134);"><rect x="5.934065934065927" y="361.7489133214011" height="99.71874200971627" width="53.40659340659341"/><rect x="65.27472527472527" y="460.84053417124903" height="16.378633150039263" width="53.40659340659341"/><rect x="124.61538461538461" y="421.58661629789526" height="46.73502428494339" width="53.40659340659341"/><rect x="183.95604395604397" y="366.5336775404835" height="77.44660877728234" width="53.40659340659341"/><rect x="243.2967032967033" y="446.79943100995735" height="19.487908961593178" width="53.40659340659341"/><rect x="302.6373626373626" y="301.28205128205127" height="133.33333333333337" width="53.40659340659341"/><rect x="361.978021978022" y="311.9258973369355" height="65.41875723658819" width="53.40659340659341"/><rect x="421.31868131868134" y="427.84862196626904" height="76.88194158782397" width="53.40659340659341"/><rect x="480.65934065934067" y="422.1600447677672" height="87.7448237269166" width="53.40659340659341"/></g><g class="layer" style="fill: rgb(56, 108, 176);"><rect x="5.934065934065927" y="476.96241370493476" height="68.42239836358988" width="53.40659340659341"/><rect x="65.27472527472527" y="521.5239591516104" height="38.76669285153184" width="53.40659340659341"/><rect x="124.61538461538461" y="498.4349703184026" height="38.855909336211596" width="53.40659340659341"/><rect x="183.95604395604397" y="524.1023233982634" height="0" width="53.40659340659341"/><rect x="243.2967032967033" y="537.5533428165007" height="17.496443812233224" width="53.40659340659341"/><rect x="302.6373626373626" y="464.2307692307692" height="5.128205128205138" width="53.40659340659341"/><rect x="361.978021978022" y="439.40563489000385" height="0.6947124662292481" width="53.40659340659341"/><rect x="421.31868131868134" y="560.2632661456191" height="0" width="53.40659340659341"/><rect x="480.65934065934067" y="563.5142697257975" height="0" width="53.40659340659341"/></g><g class="layer" style="fill: rgb(255, 255, 153);"><rect x="5.934065934065927" y="461.4676553311174" height="15.494758373817376" width="53.40659340659341"/><rect x="65.27472527472527" y="477.2191673212883" height="44.304791830322074" width="53.40659340659341"/><rect x="124.61538461538461" y="468.32164058283865" height="30.113329735563923" width="53.40659340659341"/><rect x="183.95604395604397" y="443.98028631776583" height="80.12203708049753" width="53.40659340659341"/><rect x="243.2967032967033" y="466.2873399715505" height="71.26600284495021" width="53.40659340659341"/><rect x="302.6373626373626" y="434.61538461538464" height="29.615384615384585" width="53.40659340659341"/><rect x="361.978021978022" y="377.3446545735237" height="62.06098031648014" width="53.40659340659341"/><rect x="421.31868131868134" y="504.730563554093" height="55.53270259152612" width="53.40659340659341"/><rect x="480.65934065934067" y="509.9048684946838" height="53.60940123111368" width="53.40659340659341"/></g><g class="layer" style="fill: rgb(191, 91, 23);"><rect x="5.934065934065927" y="555.2032728202506" height="0" width="53.40659340659341"/><rect x="65.27472527472527" y="560.2906520031422" height="0" width="53.40659340659341"/><rect x="124.61538461538461" y="554.9919050188882" height="1.8348623853211166" width="53.40659340659341"/><rect x="183.95604395604397" y="533.3959164515372" height="8.730344989439118" width="53.40659340659341"/><rect x="243.2967032967033" y="561.877667140825" height="0" width="53.40659340659341"/><rect x="302.6373626373626" y="498.2051282051282" height="9.358974358974365" width="53.40659340659341"/><rect x="361.978021978022" y="467.0783481281359" height="43.53531455036659" width="53.40659340659341"/><rect x="421.31868131868134" y="563.1016042780749" height="4.195804195804158" width="53.40659340659341"/><rect x="480.65934065934067" y="566.200335758254" height="3.02182428651372" width="53.40659340659341"/></g><g class="layer" style="fill: rgb(253, 192, 134);"><rect x="5.934065934065927" y="565.3285604704679" height="0" width="53.40659340659341"/><rect x="65.27472527472527" y="570.7776904948939" height="0" width="53.40659340659341"/><rect x="124.61538461538461" y="566.2169454937939" height="0.9713977334051833" width="53.40659340659341"/><rect x="183.95604395604397" y="575.7803332551044" height="10.138465149026047" width="53.40659340659341"/><rect x="243.2967032967033" y="561.877667140825" height="0" width="53.40659340659341"/><rect x="302.6373626373626" y="550.5128205128206" height="11.28205128205127" width="53.40659340659341"/><rect x="361.978021978022" y="562.6013122346584" height="10.883828637591705" width="53.40659340659341"/><rect x="421.31868131868134" y="574.9485808309338" height="6.540518305224168" width="53.40659340659341"/><rect x="480.65934065934067" y="579.6306659205372" height="6.8270844991606054" width="53.40659340659341"/></g><g class="layer" style="fill: rgb(240, 2, 127);"><rect x="5.934065934065927" y="545.3848120685246" height="9.81846075172598" width="53.40659340659341"/><rect x="65.27472527472527" y="560.2906520031422" height="0" width="53.40659340659341"/><rect x="124.61538461538461" y="537.2908796546142" height="17.701025364274074" width="53.40659340659341"/><rect x="183.95604395604397" y="524.1023233982634" height="9.293593053273867" width="53.40659340659341"/><rect x="243.2967032967033" y="555.049786628734" height="6.827880512091042" width="53.40659340659341"/><rect x="302.6373626373626" y="469.35897435897436" height="28.84615384615381" width="53.40659340659341"/><rect x="361.978021978022" y="440.1003473562331" height="26.97800077190277" width="53.40659340659341"/><rect x="421.31868131868134" y="560.2632661456191" height="2.8383381324557604" width="53.40659340659341"/><rect x="480.65934065934067" y="563.5142697257975" height="2.6860660324565515" width="53.40659340659341"/></g><g class="layer" style="fill: rgb(102, 102, 102);"><rect x="5.934065934065927" y="555.2032728202506" height="0.6136537969828169" width="53.40659340659341"/><rect x="65.27472527472527" y="560.2906520031422" height="0" width="53.40659340659341"/><rect x="124.61538461538461" y="556.8267674042094" height="5.288720992984395" width="53.40659340659341"/><rect x="183.95604395604397" y="542.1262614409764" height="15.911757803332534" width="53.40659340659341"/><rect x="243.2967032967033" y="561.877667140825" height="0" width="53.40659340659341"/><rect x="302.6373626373626" y="507.56410256410254" height="10" width="53.40659340659341"/><rect x="361.978021978022" y="510.61366267850246" height="29.293708992667007" width="53.40659340659341"/><rect x="421.31868131868134" y="567.297408473879" height="4.0723981900453055" width="53.40659340659341"/><rect x="480.65934065934067" y="569.2221600447677" height="4.812534974818163" width="53.40659340659341"/></g><g class="layer" style="fill: rgb(240, 2, 127);"><rect x="5.934065934065927" y="567.9365891076451" height="10.432114548708796" width="53.40659340659341"/><rect x="65.27472527472527" y="581.0290652003142" height="0" width="53.40659340659341"/><rect x="124.61538461538461" y="574.3119266055046" height="15.542363734484638" width="53.40659340659341"/><rect x="183.95604395604397" y="585.9187984041305" height="0" width="53.40659340659341"/><rect x="243.2967032967033" y="587.1977240398293" height="3.413940256045521" width="53.40659340659341"/><rect x="302.6373626373626" y="561.7948717948718" height="0" width="53.40659340659341"/><rect x="361.978021978022" y="573.4851408722501" height="0" width="53.40659340659341"/><rect x="421.31868131868134" y="590.0041135335252" height="0" width="53.40659340659341"/><rect x="480.65934065934067" y="595.1874650251818" height="0" width="53.40659340659341"/></g><g class="layer" style="fill: rgb(102, 102, 102);"><rect x="5.934065934065927" y="578.3687036563539" height="9.665047302480161" width="53.40659340659341"/><rect x="65.27472527472527" y="581.0290652003142" height="13.432835820895548" width="53.40659340659341"/><rect x="124.61538461538461" y="590.5018888289261" height="2.2665947112790263" width="53.40659340659341"/><rect x="183.95604395604397" y="589.861534850974" height="0" width="53.40659340659341"/><rect x="243.2967032967033" y="590.6116642958748" height="2.560455192034169" width="53.40659340659341"/><rect x="302.6373626373626" y="579.8717948717949" height="0" width="53.40659340659341"/><rect x="361.978021978022" y="578.6954843689695" height="0" width="53.40659340659341"/><rect x="421.31868131868134" y="590.0041135335252" height="0" width="53.40659340659341"/><rect x="480.65934065934067" y="595.970900951315" height="0" width="53.40659340659341"/></g><g class="layer" style="fill: rgb(127, 201, 127);"><rect x="5.934065934065927" y="555.8169266172334" height="9.511633853234457" width="53.40659340659341"/><rect x="65.27472527472527" y="560.2906520031422" height="10.487038491751719" width="53.40659340659341"/><rect x="124.61538461538461" y="562.1154883971938" height="3.2379924446843233" width="53.40659340659341"/><rect x="183.95604395604397" y="558.0380192443089" height="4.6467965266368765" width="53.40659340659341"/><rect x="243.2967032967033" y="561.877667140825" height="0" width="53.40659340659341"/><rect x="302.6373626373626" y="517.5641025641025" height="9.230769230769283" width="53.40659340659341"/><rect x="361.978021978022" y="539.9073716711695" height="10.420686993438835" width="53.40659340659341"/><rect x="421.31868131868134" y="571.3698066639244" height="2.097902097902079" width="53.40659340659341"/><rect x="480.65934065934067" y="574.0346950195859" height="4.14101846670394" width="53.40659340659341"/></g><g class="layer" style="fill: rgb(255, 255, 153);"><rect x="5.934065934065927" y="565.3285604704679" height="2.608028637177199" width="53.40659340659341"/><rect x="65.27472527472527" y="570.7776904948939" height="1.0604870384918286" width="53.40659340659341"/><rect x="124.61538461538461" y="567.1883432271991" height="2.914193200215891" width="53.40659340659341"/><rect x="183.95604395604397" y="585.9187984041305" height="0" width="53.40659340659341"/><rect x="243.2967032967033" y="561.877667140825" height="7.112375533428235" width="53.40659340659341"/><rect x="302.6373626373626" y="561.7948717948718" height="0" width="53.40659340659341"/><rect x="361.978021978022" y="573.4851408722501" height="0" width="53.40659340659341"/><rect x="421.31868131868134" y="581.489099136158" height="8.515014397367281" width="53.40659340659341"/><rect x="480.65934065934067" y="586.4577504196978" height="8.729714605483991" width="53.40659340659341"/></g><g class="layer" style="fill: rgb(56, 108, 176);"><rect x="5.934065934065927" y="567.9365891076451" height="0" width="53.40659340659341"/><rect x="65.27472527472527" y="571.8381775333858" height="9.190887666928461" width="53.40659340659341"/><rect x="124.61538461538461" y="570.102536427415" height="4.20939017808962" width="53.40659340659341"/><rect x="183.95604395604397" y="585.9187984041305" height="0" width="53.40659340659341"/><rect x="243.2967032967033" y="568.9900426742532" height="18.207681365576036" width="53.40659340659341"/><rect x="302.6373626373626" y="561.7948717948718" height="0" width="53.40659340659341"/><rect x="361.978021978022" y="573.4851408722501" height="0" width="53.40659340659341"/><rect x="421.31868131868134" y="590.0041135335252" height="0" width="53.40659340659341"/><rect x="480.65934065934067" y="595.1874650251818" height="0" width="53.40659340659341"/></g><g class="layer" style="fill: rgb(127, 201, 127);"><rect x="5.934065934065927" y="588.033750958834" height="7.2104321145486665" width="53.40659340659341"/><rect x="65.27472527472527" y="594.4619010212098" height="5.538098978790231" width="53.40659340659341"/><rect x="124.61538461538461" y="592.7684835402051" height="2.2665947112789127" width="53.40659340659341"/><rect x="183.95604395604397" y="589.861534850974" height="0" width="53.40659340659341"/><rect x="243.2967032967033" y="593.172119487909" height="3.8406827880512537" width="53.40659340659341"/><rect x="302.6373626373626" y="579.8717948717949" height="0" width="53.40659340659341"/><rect x="361.978021978022" y="578.6954843689695" height="0" width="53.40659340659341"/><rect x="421.31868131868134" y="590.0041135335252" height="0" width="53.40659340659341"/><rect x="480.65934065934067" y="595.970900951315" height="0" width="53.40659340659341"/></g><g class="layer" style="fill: rgb(191, 91, 23);"><rect x="5.934065934065927" y="578.3687036563539" height="0" width="53.40659340659341"/><rect x="65.27472527472527" y="581.0290652003142" height="0" width="53.40659340659341"/><rect x="124.61538461538461" y="589.8542903399892" height="0.6475984889368647" width="53.40659340659341"/><rect x="183.95604395604397" y="585.9187984041305" height="3.942736446843469" width="53.40659340659341"/><rect x="243.2967032967033" y="590.6116642958748" height="0" width="53.40659340659341"/><rect x="302.6373626373626" y="561.7948717948718" height="18.076923076923094" width="53.40659340659341"/><rect x="361.978021978022" y="573.4851408722501" height="5.210343496719361" width="53.40659340659341"/><rect x="421.31868131868134" y="590.0041135335252" height="0" width="53.40659340659341"/><rect x="480.65934065934067" y="595.1874650251818" height="0.7834359261331656" width="53.40659340659341"/></g><g class="layer" style="fill: rgb(190, 174, 212);"><rect x="5.934065934065927" y="595.2441830733827" height="0" width="53.40659340659341"/><rect x="65.27472527472527" y="600" height="0" width="53.40659340659341"/><rect x="124.61538461538461" y="595.035078251484" height="0" width="53.40659340659341"/><rect x="183.95604395604397" y="589.861534850974" height="0" width="53.40659340659341"/><rect x="243.2967032967033" y="597.0128022759602" height="0" width="53.40659340659341"/><rect x="302.6373626373626" y="579.8717948717949" height="8.461538461538453" width="53.40659340659341"/><rect x="361.978021978022" y="578.6954843689695" height="1.157854110382118" width="53.40659340659341"/><rect x="421.31868131868134" y="590.0041135335252" height="2.3447141094200106" width="53.40659340659341"/><rect x="480.65934065934067" y="595.970900951315" height="1.678791270285501" width="53.40659340659341"/></g><g class="layer" style="fill: rgb(190, 174, 212);"><rect x="5.934065934065927" y="565.3285604704679" height="0" width="53.40659340659341"/><rect x="65.27472527472527" y="570.7776904948939" height="0" width="53.40659340659341"/><rect x="124.61538461538461" y="565.3534808418781" height="0.8634646519158196" width="53.40659340659341"/><rect x="183.95604395604397" y="562.6848157709458" height="13.095517484158677" width="53.40659340659341"/><rect x="243.2967032967033" y="561.877667140825" height="0" width="53.40659340659341"/><rect x="302.6373626373626" y="526.7948717948718" height="23.71794871794873" width="53.40659340659341"/><rect x="361.978021978022" y="550.3280586646083" height="12.273253570050088" width="53.40659340659341"/><rect x="421.31868131868134" y="573.4677087618264" height="1.4808720691073631" width="53.40659340659341"/><rect x="480.65934065934067" y="578.1757134862899" height="1.4549524342473887" width="53.40659340659341"/></g><g class="layer" style="fill: rgb(240, 2, 127);"><rect x="5.934065934065927" y="597.5453848120685" height="0" width="53.40659340659341"/><rect x="65.27472527472527" y="600" height="0" width="53.40659340659341"/><rect x="124.61538461538461" y="599.0286022665947" height="0" width="53.40659340659341"/><rect x="183.95604395604397" y="592.6777751701478" height="1.1264961276696113" width="53.40659340659341"/><rect x="243.2967032967033" y="600" height="0" width="53.40659340659341"/><rect x="302.6373626373626" y="593.0769230769231" height="0.897435897435912" width="53.40659340659341"/><rect x="361.978021978022" y="591.4318795831725" height="4.862987263604737" width="53.40659340659341"/><rect x="421.31868131868134" y="596.0510078157137" height="0" width="53.40659340659341"/><rect x="480.65934065934067" y="598.2092893116956" height="0" width="53.40659340659341"/></g><g class="layer" style="fill: rgb(191, 91, 23);"><rect x="5.934065934065927" y="597.5453848120685" height="0" width="53.40659340659341"/><rect x="65.27472527472527" y="600" height="0" width="53.40659340659341"/><rect x="124.61538461538461" y="599.0286022665947" height="0" width="53.40659340659341"/><rect x="183.95604395604397" y="593.8042712978174" height="5.632480638347829" width="53.40659340659341"/><rect x="243.2967032967033" y="600" height="0" width="53.40659340659341"/><rect x="302.6373626373626" y="593.974358974359" height="0" width="53.40659340659341"/><rect x="361.978021978022" y="596.2948668467773" height="0" width="53.40659340659341"/><rect x="421.31868131868134" y="596.0510078157137" height="1.9744960921432266" width="53.40659340659341"/><rect x="480.65934065934067" y="598.2092893116956" height="0" width="53.40659340659341"/></g><g class="layer" style="fill: rgb(253, 192, 134);"><rect x="5.934065934065927" y="595.2441830733827" height="0.3068268984915221" width="53.40659340659341"/><rect x="65.27472527472527" y="600" height="0" width="53.40659340659341"/><rect x="124.61538461538461" y="595.035078251484" height="0" width="53.40659340659341"/><rect x="183.95604395604397" y="589.861534850974" height="0" width="53.40659340659341"/><rect x="243.2967032967033" y="597.0128022759602" height="0" width="53.40659340659341"/><rect x="302.6373626373626" y="588.3333333333334" height="4.743589743589723" width="53.40659340659341"/><rect x="361.978021978022" y="579.8533384793516" height="7.641837128521843" width="53.40659340659341"/><rect x="421.31868131868134" y="592.3488276429453" height="0" width="53.40659340659341"/><rect x="480.65934065934067" y="597.6496922216005" height="0" width="53.40659340659341"/></g><g class="layer" style="fill: rgb(102, 102, 102);"><rect x="5.934065934065927" y="597.5453848120685" height="0" width="53.40659340659341"/><rect x="65.27472527472527" y="600" height="0" width="53.40659340659341"/><rect x="124.61538461538461" y="599.0286022665947" height="0" width="53.40659340659341"/><rect x="183.95604395604397" y="599.4367519361653" height="0" width="53.40659340659341"/><rect x="243.2967032967033" y="600" height="0" width="53.40659340659341"/><rect x="302.6373626373626" y="593.974358974359" height="5" width="53.40659340659341"/><rect x="361.978021978022" y="596.2948668467773" height="0" width="53.40659340659341"/><rect x="421.31868131868134" y="598.0255039078569" height="0" width="53.40659340659341"/><rect x="480.65934065934067" y="598.2092893116956" height="0" width="53.40659340659341"/></g><g class="layer" style="fill: rgb(255, 255, 153);"><rect x="5.934065934065927" y="595.5510099718742" height="1.9943748401942685" width="53.40659340659341"/><rect x="65.27472527472527" y="600" height="0" width="53.40659340659341"/><rect x="124.61538461538461" y="595.035078251484" height="3.345925526173801" width="53.40659340659341"/><rect x="183.95604395604397" y="589.861534850974" height="2.8162403191738576" width="53.40659340659341"/><rect x="243.2967032967033" y="597.0128022759602" height="2.9871977240397882" width="53.40659340659341"/><rect x="302.6373626373626" y="593.0769230769231" height="0" width="53.40659340659341"/><rect x="361.978021978022" y="587.4951756078734" height="1.0420686993438721" width="53.40659340659341"/><rect x="421.31868131868134" y="592.3488276429453" height="0" width="53.40659340659341"/><rect x="480.65934065934067" y="597.6496922216005" height="0.5595970900950533" width="53.40659340659341"/></g><g class="layer" style="fill: rgb(127, 201, 127);"><rect x="5.934065934065927" y="597.5453848120685" height="0" width="53.40659340659341"/><rect x="65.27472527472527" y="600" height="0" width="53.40659340659341"/><rect x="124.61538461538461" y="599.0286022665947" height="0" width="53.40659340659341"/><rect x="183.95604395604397" y="599.4367519361653" height="0" width="53.40659340659341"/><rect x="243.2967032967033" y="600" height="0" width="53.40659340659341"/><rect x="302.6373626373626" y="598.974358974359" height="0" width="53.40659340659341"/><rect x="361.978021978022" y="596.2948668467773" height="3.2419915090698623" width="53.40659340659341"/><rect x="421.31868131868134" y="598.0255039078569" height="0" width="53.40659340659341"/><rect x="480.65934065934067" y="598.2092893116956" height="0" width="53.40659340659341"/></g><g class="layer" style="fill: rgb(56, 108, 176);"><rect x="5.934065934065927" y="597.5453848120685" height="0" width="53.40659340659341"/><rect x="65.27472527472527" y="600" height="0" width="53.40659340659341"/><rect x="124.61538461538461" y="598.3810037776578" height="0.6475984889368647" width="53.40659340659341"/><rect x="183.95604395604397" y="592.6777751701478" height="0" width="53.40659340659341"/><rect x="243.2967032967033" y="600" height="0" width="53.40659340659341"/><rect x="302.6373626373626" y="593.0769230769231" height="0" width="53.40659340659341"/><rect x="361.978021978022" y="588.5372443072173" height="2.8946352759552383" width="53.40659340659341"/><rect x="421.31868131868134" y="592.3488276429453" height="3.702180172768408" width="53.40659340659341"/><rect x="480.65934065934067" y="598.2092893116956" height="0" width="53.40659340659341"/></g><g class="layer" style="fill: rgb(253, 192, 134);"><rect x="5.934065934065927" y="597.5453848120685" height="2.454615187931495" width="53.40659340659341"/><rect x="65.27472527472527" y="600" height="0" width="53.40659340659341"/><rect x="124.61538461538461" y="599.0286022665947" height="0.6475984889368647" width="53.40659340659341"/><rect x="183.95604395604397" y="600" height="0" width="53.40659340659341"/><rect x="243.2967032967033" y="600" height="0" width="53.40659340659341"/><rect x="302.6373626373626" y="600" height="0" width="53.40659340659341"/><rect x="361.978021978022" y="599.5368583558471" height="0" width="53.40659340659341"/><rect x="421.31868131868134" y="598.0255039078569" height="0" width="53.40659340659341"/><rect x="480.65934065934067" y="599.4404029099048" height="0" width="53.40659340659341"/></g><g class="layer" style="fill: rgb(255, 255, 153);"><rect x="5.934065934065927" y="600" height="0" width="53.40659340659341"/><rect x="65.27472527472527" y="600" height="0" width="53.40659340659341"/><rect x="124.61538461538461" y="599.6762007555316" height="0" width="53.40659340659341"/><rect x="183.95604395604397" y="600" height="0" width="53.40659340659341"/><rect x="243.2967032967033" y="600" height="0" width="53.40659340659341"/><rect x="302.6373626373626" y="600" height="0" width="53.40659340659341"/><rect x="361.978021978022" y="599.5368583558471" height="0" width="53.40659340659341"/><rect x="421.31868131868134" y="598.0255039078569" height="1.7276840806251812" width="53.40659340659341"/><rect x="480.65934065934067" y="599.4404029099048" height="0.559597090095167" width="53.40659340659341"/></g><g class="layer" style="fill: rgb(190, 174, 212);"><rect x="5.934065934065927" y="597.5453848120685" height="0" width="53.40659340659341"/><rect x="65.27472527472527" y="600" height="0" width="53.40659340659341"/><rect x="124.61538461538461" y="599.0286022665947" height="0" width="53.40659340659341"/><rect x="183.95604395604397" y="599.4367519361653" height="0.5632480638347488" width="53.40659340659341"/><rect x="243.2967032967033" y="600" height="0" width="53.40659340659341"/><rect x="302.6373626373626" y="598.974358974359" height="1.0256410256409936" width="53.40659340659341"/><rect x="361.978021978022" y="599.5368583558471" height="0" width="53.40659340659341"/><rect x="421.31868131868134" y="598.0255039078569" height="0" width="53.40659340659341"/><rect x="480.65934065934067" y="598.2092893116956" height="1.2311135982092765" width="53.40659340659341"/></g><g class="layer" style="fill: rgb(56, 108, 176);"><rect x="5.934065934065927" y="600" height="0" width="53.40659340659341"/><rect x="65.27472527472527" y="600" height="0" width="53.40659340659341"/><rect x="124.61538461538461" y="599.6762007555316" height="0.32379924446843233" width="53.40659340659341"/><rect x="183.95604395604397" y="600" height="0" width="53.40659340659341"/><rect x="243.2967032967033" y="600" height="0" width="53.40659340659341"/><rect x="302.6373626373626" y="600" height="0" width="53.40659340659341"/><rect x="361.978021978022" y="599.5368583558471" height="0.46314164415286996" width="53.40659340659341"/><rect x="421.31868131868134" y="599.7531879884821" height="0" width="53.40659340659341"/><rect x="480.65934065934067" y="600" height="0" width="53.40659340659341"/></g><g class="layer" style="fill: rgb(240, 2, 127);"><rect x="5.934065934065927" y="600" height="0" width="53.40659340659341"/><rect x="65.27472527472527" y="600" height="0" width="53.40659340659341"/><rect x="124.61538461538461" y="600" height="0" width="53.40659340659341"/><rect x="183.95604395604397" y="600" height="0" width="53.40659340659341"/><rect x="243.2967032967033" y="600" height="0" width="53.40659340659341"/><rect x="302.6373626373626" y="600" height="0" width="53.40659340659341"/><rect x="361.978021978022" y="600" height="0" width="53.40659340659341"/><rect x="421.31868131868134" y="599.7531879884821" height="0.24681201151793175" width="53.40659340659341"/><rect x="480.65934065934067" y="600" height="0" width="53.40659340659341"/></g></g></svg>