<?xml version="1.0" standalone="no"?>
<svg xmlns="http://www.w3.org/2000/svg" width="181.88194274902344" height="620"><g class="legend" id="id29" transform="translate(0,580)" style="font: 10px sans-serif;"><rect width="18" height="18" x="0" style="fill: rgb(240, 2, 127);"/><text y="9" dy=".35em" text-anchor="start" x="24">d__Archaea;p__Nanoarchaeota</text></g><g class="legend" id="id28" transform="translate(0,560)" style="font: 10px sans-serif;"><rect width="18" height="18" x="0" style="fill: rgb(56, 108, 176);"/><text y="9" dy=".35em" text-anchor="start" x="24">d__Archaea;p__Thermoplasmatota</text></g><g class="legend" id="id26" transform="translate(0,540)" style="font: 10px sans-serif;"><rect width="18" height="18" x="0" style="fill: rgb(255, 255, 153);"/><text y="9" dy=".35em" text-anchor="start" x="24">d__Bacteria;p__Bdellovibrionota</text></g><g class="legend" id="id25" transform="translate(0,520)" style="font: 10px sans-serif;"><rect width="18" height="18" x="0" style="fill: rgb(253, 192, 134);"/><text y="9" dy=".35em" text-anchor="start" x="24">d__Bacteria;p__Elusimicrobiota</text></g><g class="legend" id="id27" transform="translate(0,500)" style="font: 10px sans-serif;"><rect width="18" height="18" x="0" style="fill: rgb(190, 174, 212);"/><text y="9" dy=".35em" text-anchor="start" x="24">d__Bacteria;p__Dependentiae</text></g><g class="legend" id="id23" transform="translate(0,480)" style="font: 10px sans-serif;"><rect width="18" height="18" x="0" style="fill: rgb(127, 201, 127);"/><text y="9" dy=".35em" text-anchor="start" x="24">d__Bacteria;p__Dadabacteria</text></g><g class="legend" id="id21" transform="translate(0,460)" style="font: 10px sans-serif;"><rect width="18" height="18" x="0" style="fill: rgb(102, 102, 102);"/><text y="9" dy=".35em" text-anchor="start" x="24">d__Bacteria;p__Zixibacteria</text></g><g class="legend" id="id19" transform="translate(0,440)" style="font: 10px sans-serif;"><rect width="18" height="18" x="0" style="fill: rgb(191, 91, 23);"/><text y="9" dy=".35em" text-anchor="start" x="24">d__Bacteria;p__NB1-j</text></g><g class="legend" id="id18" transform="translate(0,420)" style="font: 10px sans-serif;"><rect width="18" height="18" x="0" style="fill: rgb(240, 2, 127);"/><text y="9" dy=".35em" text-anchor="start" x="24">d__Bacteria;p__Myxococcota</text></g><g class="legend" id="id24" transform="translate(0,400)" style="font: 10px sans-serif;"><rect width="18" height="18" x="0" style="fill: rgb(56, 108, 176);"/><text y="9" dy=".35em" text-anchor="start" x="24">d__Bacteria;p__Latescibacterota</text></g><g class="legend" id="id22" transform="translate(0,380)" style="font: 10px sans-serif;"><rect width="18" height="18" x="0" style="fill: rgb(255, 255, 153);"/><text y="9" dy=".35em" text-anchor="start" x="24">d__Bacteria;p__Patescibacteria</text></g><g class="legend" id="id20" transform="translate(0,360)" style="font: 10px sans-serif;"><rect width="18" height="18" x="0" style="fill: rgb(253, 192, 134);"/><text y="9" dy=".35em" text-anchor="start" x="24">d__Bacteria;p__Methylomirabilota</text></g><g class="legend" id="id16" transform="translate(0,340)" style="font: 10px sans-serif;"><rect width="18" height="18" x="0" style="fill: rgb(190, 174, 212);"/><text y="9" dy=".35em" text-anchor="start" x="24">d__Bacteria;p__Verrucomicrobiota</text></g><g class="legend" id="id14" transform="translate(0,320)" style="font: 10px sans-serif;"><rect width="18" height="18" x="0" style="fill: rgb(127, 201, 127);"/><text y="9" dy=".35em" text-anchor="start" x="24">d__Bacteria;p__Spirochaetota</text></g><g class="legend" id="id10" transform="translate(0,300)" style="font: 10px sans-serif;"><rect width="18" height="18" x="0" style="fill: rgb(102, 102, 102);"/><text y="9" dy=".35em" text-anchor="start" x="24">d__Bacteria;p__Desulfobacterota</text></g><g class="legend" id="id15" transform="translate(0,280)" style="font: 10px sans-serif;"><rect width="18" height="18" x="0" style="fill: rgb(191, 91, 23);"/><text y="9" dy=".35em" text-anchor="start" x="24">d__Archaea;p__Crenarchaeota</text></g><g class="legend" id="id9" transform="translate(0,260)" style="font: 10px sans-serif;"><rect width="18" height="18" x="0" style="fill: rgb(240, 2, 127);"/><text y="9" dy=".35em" text-anchor="start" x="24">d__Archaea;p__Euryarchaeota</text></g><g class="legend" id="id13" transform="translate(0,240)" style="font: 10px sans-serif;"><rect width="18" height="18" x="0" style="fill: rgb(56, 108, 176);"/><text y="9" dy=".35em" text-anchor="start" x="24">d__Bacteria;p__Fusobacteriota</text></g><g class="legend" id="id12" transform="translate(0,220)" style="font: 10px sans-serif;"><rect width="18" height="18" x="0" style="fill: rgb(255, 255, 153);"/><text y="9" dy=".35em" text-anchor="start" x="24">d__Bacteria;p__Campilobacterota</text></g><g class="legend" id="id6" transform="translate(0,200)" style="font: 10px sans-serif;"><rect width="18" height="18" x="0" style="fill: rgb(253, 192, 134);"/><text y="9" dy=".35em" text-anchor="start" x="24">d__Bacteria;p__Nitrospirota</text></g><g class="legend" id="id17" transform="translate(0,180)" style="font: 10px sans-serif;"><rect width="18" height="18" x="0" style="fill: rgb(190, 174, 212);"/><text y="9" dy=".35em" text-anchor="start" x="24">d__Bacteria;p__Planctomycetota</text></g><g class="legend" id="id11" transform="translate(0,160)" style="font: 10px sans-serif;"><rect width="18" height="18" x="0" style="fill: rgb(127, 201, 127);"/><text y="9" dy=".35em" text-anchor="start" x="24">d__Bacteria;__</text></g><g class="legend" id="id8" transform="translate(0,140)" style="font: 10px sans-serif;"><rect width="18" height="18" x="0" style="fill: rgb(102, 102, 102);"/><text y="9" dy=".35em" text-anchor="start" x="24">d__Bacteria;p__Acidobacteriota</text></g><g class="legend" id="id5" transform="translate(0,120)" style="font: 10px sans-serif;"><rect width="18" height="18" x="0" style="fill: rgb(191, 91, 23);"/><text y="9" dy=".35em" text-anchor="start" x="24">d__Bacteria;p__Gemmatimonadota</text></g><g class="legend" id="id7" transform="translate(0,100)" style="font: 10px sans-serif;"><rect width="18" height="18" x="0" style="fill: rgb(240, 2, 127);"/><text y="9" dy=".35em" text-anchor="start" x="24">d__Bacteria;p__Chloroflexi</text></g><g class="legend" id="id3" transform="translate(0,80)" style="font: 10px sans-serif;"><rect width="18" height="18" x="0" style="fill: rgb(56, 108, 176);"/><text y="9" dy=".35em" text-anchor="start" x="24">d__Bacteria;p__Synergistota</text></g><g class="legend" id="id4" transform="translate(0,60)" style="font: 10px sans-serif;"><rect width="18" height="18" x="0" style="fill: rgb(255, 255, 153);"/><text y="9" dy=".35em" text-anchor="start" x="24">d__Bacteria;p__Bacteroidota</text></g><g class="legend" id="id2" transform="translate(0,40)" style="font: 10px sans-serif;"><rect width="18" height="18" x="0" style="fill: rgb(253, 192, 134);"/><text y="9" dy=".35em" text-anchor="start" x="24">d__Bacteria;p__Actinobacteriota</text></g><g class="legend" id="id1" transform="translate(0,20)" style="font: 10px sans-serif;"><rect width="18" height="18" x="0" style="fill: rgb(190, 174, 212);"/><text y="9" dy=".35em" text-anchor="start" x="24">d__Bacteria;p__Firmicutes</text></g><g class="legend" id="id0" transform="translate(0,0)" style="font: 10px sans-serif;"><rect width="18" height="18" x="0" style="fill: rgb(127, 201, 127);"/><text y="9" dy=".35em" text-anchor="start" x="24">d__Bacteria;p__Proteobacteria</text></g></svg>